<?xml version="1.0" standalone="no"?>
<!DOCTYPE svg PUBLIC "-//W3C//DTD SVG 20010904//EN"
 "http://www.w3.org/TR/2001/REC-SVG-20010904/DTD/svg10.dtd">
<svg version="1.0" xmlns="http://www.w3.org/2000/svg"
 width="512.000000pt" height="512.000000pt" viewBox="0 0 512.000000 512.000000"
 preserveAspectRatio="xMidYMid meet">
<metadata>
Created by potrace 1.14, written by Peter Selinger 2001-2017
</metadata>
<g transform="translate(0.000000,512.000000) scale(0.100000,-0.100000)"
fill="#000000" stroke="none">
<path d="M3478 4900 c-69 -21 -118 -86 -118 -156 0 -75 28 -114 125 -168 65
-37 102 -89 111 -155 6 -46 5 -50 -26 -72 -63 -47 -79 -90 -101 -280 -98 -837
-453 -1450 -1071 -1853 -247 -161 -582 -298 -898 -366 -229 -51 -569 -83 -815
-78 -105 2 -136 0 -160 -14 -102 -56 -144 -182 -95 -283 55 -114 497 -394 773
-491 80 -28 98 -44 49 -44 -45 0 -120 -26 -156 -54 -79 -60 -103 -193 -52
-281 32 -55 109 -102 292 -182 328 -142 622 -206 944 -205 187 0 296 12 455
48 441 101 869 357 1243 743 388 400 605 781 697 1221 33 154 45 467 26 627
-56 450 -238 867 -567 1298 -95 124 -134 159 -194 175 -36 10 -37 11 -39 64
-4 128 -69 281 -161 379 -94 101 -194 149 -262 127z m219 -647 c-3 -10 -13
-39 -23 -65 -15 -44 -15 -59 0 -205 18 -175 21 -489 6 -628 -9 -81 -8 -93 9
-115 24 -34 61 -37 88 -8 20 21 23 42 34 214 13 189 11 238 -18 641 -5 67 -4
73 20 97 20 20 36 26 68 26 50 0 73 -21 194 -185 152 -205 257 -388 348 -606
122 -292 183 -660 158 -953 -41 -457 -232 -868 -586 -1259 -467 -516 -979
-801 -1540 -858 -183 -18 -457 0 -634 42 -249 60 -624 213 -665 271 -23 32
-20 82 7 113 19 23 44 31 182 59 363 75 617 162 931 317 151 75 184 95 194
119 13 32 2 63 -30 80 -16 9 -54 -6 -212 -84 -253 -124 -584 -246 -667 -246
-80 0 -348 84 -505 159 -171 82 -452 269 -505 338 -28 35 -27 78 4 108 24 25
27 25 193 25 1067 0 1947 422 2424 1165 234 364 380 803 427 1288 10 104 26
141 64 157 33 13 40 12 34 -7z"/>
<path d="M3685 3070 c-12 -4 -25 -14 -31 -21 -6 -8 -21 -87 -32 -175 -24 -173
-52 -286 -109 -429 -67 -168 -179 -346 -300 -477 -47 -51 -56 -93 -27 -122 28
-29 66 -20 110 27 137 144 261 344 345 554 60 151 119 436 119 573 0 44 -3 51
-27 64 -17 8 -36 11 -48 6z"/>
<path d="M4398 2769 c-67 -38 -24 -138 50 -115 45 15 47 92 3 115 -24 13 -31
13 -53 0z"/>
<path d="M4346 2564 c-36 -35 -6 -104 45 -104 39 0 66 79 37 108 -17 17 -64
15 -82 -4z"/>
<path d="M2792 1614 c-26 -18 -30 -65 -6 -88 8 -9 28 -16 44 -16 36 0 60 23
60 59 0 52 -53 77 -98 45z"/>
<path d="M1710 1482 c-14 -11 -22 -29 -22 -47 0 -29 31 -65 57 -65 26 0 58 36
58 65 0 29 -32 65 -58 65 -7 0 -23 -8 -35 -18z"/>
<path d="M2590 1480 c-37 -37 -20 -93 32 -105 33 -8 68 23 68 60 0 30 -32 65
-60 65 -11 0 -29 -9 -40 -20z"/>
<path d="M1463 1435 c-46 -20 -54 -59 -20 -92 45 -46 137 -21 137 37 0 51 -61
80 -117 55z"/>
<path d="M1622 1288 c-18 -18 -14 -73 6 -91 25 -23 58 -21 82 3 24 24 25 48 4
78 -17 25 -71 31 -92 10z"/>
</g>
</svg>
